<?xml version="1.0" standalone="no"?>
<!DOCTYPE svg PUBLIC "-//W3C//DTD SVG 20010904//EN"
 "http://www.w3.org/TR/2001/REC-SVG-20010904/DTD/svg10.dtd">
<svg version="1.0" xmlns="http://www.w3.org/2000/svg"
 width="1500.000000pt" height="500.000000pt" viewBox="0 0 1500.000000 500.000000"
 preserveAspectRatio="xMidYMid meet">

<g transform="translate(0.000000,500.000000) scale(0.100000,-0.100000)"
fill="#000000" stroke="none">
<path d="M10540 3811 c-117 -36 -203 -132 -257 -288 -25 -72 -27 -90 -27 -233
0 -183 18 -263 90 -399 54 -102 96 -161 259 -367 209 -263 245 -328 281 -504
30 -148 3 -282 -68 -333 -38 -28 -114 -33 -158 -10 -75 39 -100 135 -100 391
l0 162 -145 0 -145 0 0 -415 0 -415 145 0 145 0 0 42 0 42 28 -26 c15 -15 52
-39 82 -55 48 -24 67 -27 145 -28 77 0 98 4 148 27 111 52 214 190 252 337 52
202 19 434 -95 662 -64 129 -140 240 -302 441 -183 227 -233 325 -245 480 -10
134 36 208 132 208 57 0 102 -31 128 -88 18 -40 22 -71 25 -209 l4 -163 144 0
144 0 0 360 0 360 -145 0 -145 0 0 -35 0 -35 -45 35 c-73 55 -195 80 -275 56z"/>
<path d="M390 3645 l0 -145 75 0 c62 0 75 -3 75 -16 0 -14 -231 -1664 -246
-1756 l-6 -38 -74 0 -74 0 0 -145 0 -145 320 0 320 0 0 145 0 145 -75 0 c-65
0 -75 2 -75 18 0 9 11 130 25 267 14 138 25 251 25 253 0 1 68 2 150 2 83 0
150 -1 150 -2 0 -2 11 -115 25 -253 14 -137 25 -258 25 -267 0 -16 -10 -18
-75 -18 l-75 0 0 -145 0 -145 320 0 320 0 0 145 0 145 -74 0 -74 0 -6 38 c-15
92 -246 1742 -246 1756 0 13 13 16 75 16 l75 0 0 145 0 145 -440 0 -440 0 0
-145z m464 -112 c8 -59 96 -980 96 -999 0 -11 -25 -14 -120 -14 -95 0 -120 3
-120 14 0 19 88 940 96 999 5 36 10 47 24 47 14 0 19 -11 24 -47z"/>
<path d="M2400 3645 l0 -145 90 0 90 0 0 -905 0 -905 -90 0 -90 0 0 -145 0
-145 360 0 360 0 0 145 0 145 -100 0 -100 0 0 400 0 400 120 0 120 0 0 145 0
145 -120 0 -120 0 0 360 0 360 145 0 145 0 0 -205 0 -205 145 0 145 0 0 350 0
350 -550 0 -550 0 0 -145z"/>
<path d="M5945 3508 c-33 -27 -99 -76 -147 -109 l-88 -60 0 -135 0 -134 -75 0
-75 0 0 -140 0 -140 75 0 75 0 0 -537 c1 -590 5 -649 57 -745 36 -68 96 -113
170 -128 65 -14 189 -9 271 11 l52 12 0 138 0 137 -47 -15 c-97 -29 -172 0
-193 76 -6 22 -10 238 -10 544 l0 507 100 0 100 0 0 140 0 140 -100 0 -100 0
-2 244 -3 243 -60 -49z"/>
<path d="M11645 3508 c-33 -27 -99 -76 -147 -109 l-88 -60 0 -135 0 -134 -75
0 -75 0 0 -140 0 -140 75 0 75 0 0 -537 c1 -590 5 -649 57 -745 36 -68 96
-113 170 -128 65 -14 189 -9 271 11 l52 12 0 138 0 137 -47 -15 c-97 -29 -172
0 -193 76 -6 22 -10 238 -10 544 l0 507 100 0 100 0 0 140 0 140 -100 0 -100
0 -2 244 -3 243 -60 -49z"/>
<path d="M3841 3084 c-117 -31 -212 -108 -267 -215 -31 -62 -57 -150 -46 -160
4 -4 59 -22 122 -39 63 -18 120 -34 126 -37 7 -2 16 20 23 58 10 48 21 70 50
102 34 36 44 41 92 44 71 5 117 -18 144 -72 18 -35 20 -65 23 -254 l4 -215
-36 32 c-70 61 -112 77 -206 77 -76 0 -93 -3 -151 -32 -166 -82 -250 -273
-235 -533 10 -183 57 -302 153 -390 84 -76 180 -98 293 -64 42 12 67 29 117
79 l63 63 0 -64 0 -64 465 0 465 0 0 140 0 140 -60 0 -60 0 0 514 0 514 44 45
c66 68 146 76 183 20 17 -25 18 -77 21 -700 l3 -673 209 0 210 0 0 140 0 140
-60 0 -60 0 0 538 c0 574 -4 621 -51 720 -50 102 -149 159 -259 149 -73 -6
-131 -37 -191 -100 l-49 -50 0 66 0 67 -210 0 -210 0 0 -140 0 -140 60 0 60 0
0 -555 0 -555 -105 0 -105 0 0 509 c0 304 -4 530 -10 562 -25 130 -110 247
-221 300 -101 49 -231 62 -338 33z m176 -925 c15 -5 43 -24 61 -42 l32 -31 0
-187 0 -187 -42 -36 c-93 -80 -211 -51 -255 62 -22 58 -25 255 -5 314 34 96
121 141 209 107z"/>
<path d="M6621 3084 c-117 -31 -212 -108 -267 -215 -31 -62 -57 -150 -46 -160
4 -4 59 -22 122 -39 63 -18 120 -34 126 -37 7 -2 16 20 23 58 10 48 21 70 50
102 34 36 44 41 92 44 71 5 117 -18 144 -72 18 -35 20 -65 23 -254 l4 -215
-36 32 c-70 61 -112 77 -206 77 -76 0 -93 -3 -151 -32 -166 -82 -250 -273
-235 -533 10 -183 57 -302 153 -390 84 -76 180 -98 293 -64 42 12 67 29 117
79 l63 63 0 -64 0 -64 345 0 345 0 0 56 0 56 45 -50 c63 -70 120 -96 196 -89
171 15 289 198 289 447 0 222 -85 374 -305 546 -160 125 -205 195 -205 321 0
91 33 143 92 143 65 0 96 -60 105 -201 l6 -99 134 0 133 0 0 270 0 270 -135 0
-134 0 -3 -61 -3 -61 -33 45 c-41 58 -87 86 -151 94 -244 29 -399 -384 -256
-682 42 -88 107 -160 250 -281 162 -135 191 -177 202 -289 12 -131 -22 -205
-93 -205 -70 0 -115 87 -130 253 l-7 77 -133 0 -134 0 0 -140 0 -140 -60 0
-60 0 0 509 c0 304 -4 530 -10 562 -25 130 -110 247 -221 300 -101 49 -231 62
-338 33z m176 -925 c15 -5 43 -24 61 -42 l32 -31 0 -187 0 -187 -42 -36 c-93
-80 -211 -51 -255 62 -22 58 -25 255 -5 314 34 96 121 141 209 107z"/>
<path d="M12307 3090 c-177 -45 -285 -217 -328 -520 -18 -123 -18 -544 -1
-662 40 -277 127 -439 270 -506 50 -24 70 -27 157 -27 88 0 107 3 158 27 115
54 202 180 246 353 38 153 45 234 45 480 0 148 -5 271 -13 320 -45 284 -133
446 -277 512 -62 28 -189 40 -257 23z m161 -295 c42 -35 60 -95 73 -248 14
-154 6 -638 -11 -737 -20 -114 -56 -160 -128 -160 -108 0 -139 163 -129 675 7
364 22 444 89 482 36 19 74 15 106 -12z"/>
<path d="M13591 3074 c-98 -26 -152 -81 -222 -229 l-49 -100 0 163 0 162 -225
0 -225 0 0 -140 0 -140 75 0 75 0 0 -555 0 -555 -75 0 -75 0 0 -140 0 -140
310 0 310 0 0 140 0 140 -85 0 -85 0 0 363 c0 387 6 452 52 546 48 99 150 164
279 178 51 5 59 9 60 27 0 21 1 21 10 1 18 -41 379 -1350 378 -1374 0 -14 -17
-93 -37 -176 l-37 -150 -133 -3 -132 -3 0 -129 0 -130 240 0 241 0 5 28 c4 15
113 459 243 987 l236 960 58 3 57 3 0 129 0 130 -260 0 -260 0 0 -130 0 -130
60 0 c33 0 60 -3 60 -7 1 -19 -195 -873 -200 -873 -3 0 -52 188 -108 418 -56
229 -105 427 -108 440 -6 21 -4 22 60 22 l66 0 0 130 0 130 -220 0 c-140 0
-220 4 -220 10 0 14 -55 11 -119 -6z"/>
<path d="M8090 2940 l0 -130 64 0 c53 0 66 -3 70 -17 57 -190 376 -1354 375
-1372 0 -14 -17 -93 -37 -176 l-37 -150 -133 -3 -132 -3 0 -129 0 -130 240 0
241 0 5 28 c4 15 113 459 243 987 l236 960 58 3 57 3 0 129 0 130 -260 0 -260
0 0 -130 0 -130 60 0 c33 0 60 -3 60 -7 1 -19 -195 -873 -200 -873 -3 0 -52
188 -108 418 -56 229 -105 427 -108 440 -6 21 -4 22 60 22 l66 0 0 130 0 130
-280 0 -280 0 0 -130z"/>
</g>
</svg>
