<svg width="478" height="5650" viewBox="0 0 478 5650" fill="none" xmlns="http://www.w3.org/2000/svg">
<rect width="478" height="5650" fill=""/>
<g id="IconMain" filter="url(#filter0_d_0_1)">
<path d="M240 0.5C240 163.7 240 416.454 240 421.12M140 524.847C140 402 334 405 334 524.847M391 183C240 183 240 183 83.0002 183M83.0002 569C162.947 479.132 311.053 479.132 391 569C462.122 648.947 462.122 763.053 391 843C311.053 932.867 162.947 932.867 83.0002 843C11.8786 763.053 11.8786 648.947 83.0002 569Z" stroke="black" stroke-width="32" shape-rendering="crispEdges"/>
</g>
<g id="IconDown" filter="url(#filter1_d_0_1)">
<path d="M462 910.5C422.172 955.27 331.179 977.737 240 977.9M16 910.5C56.119 955.597 148.154 978.064 240 977.9M240 977.9V5642" stroke="black" stroke-width="32"/>
</g>
<defs>
<filter id="filter0_d_0_1" x="9.65904" y="0.5" width="454.682" height="933.9" filterUnits="userSpaceOnUse" color-interpolation-filters="sRGB">
<feFlood flood-opacity="0" result="BackgroundImageFix"/>
<feColorMatrix in="SourceAlpha" type="matrix" values="0 0 0 0 0 0 0 0 0 0 0 0 0 0 0 0 0 0 127 0" result="hardAlpha"/>
<feOffset dy="4"/>
<feGaussianBlur stdDeviation="2"/>
<feComposite in2="hardAlpha" operator="out"/>
<feColorMatrix type="matrix" values="0 0 0 0 0 0 0 0 0 0 0 0 0 0 0 0 0 0 0.25 0"/>
<feBlend mode="normal" in2="BackgroundImageFix" result="effect1_dropShadow_0_1"/>
<feBlend mode="normal" in="SourceGraphic" in2="effect1_dropShadow_0_1" result="shape"/>
</filter>
<filter id="filter1_d_0_1" x="0.0457306" y="899.865" width="477.909" height="4750.13" filterUnits="userSpaceOnUse" color-interpolation-filters="sRGB">
<feFlood flood-opacity="0" result="BackgroundImageFix"/>
<feColorMatrix in="SourceAlpha" type="matrix" values="0 0 0 0 0 0 0 0 0 0 0 0 0 0 0 0 0 0 127 0" result="hardAlpha"/>
<feOffset dy="4"/>
<feGaussianBlur stdDeviation="2"/>
<feComposite in2="hardAlpha" operator="out"/>
<feColorMatrix type="matrix" values="0 0 0 0 0 0 0 0 0 0 0 0 0 0 0 0 0 0 0.25 0"/>
<feBlend mode="normal" in2="BackgroundImageFix" result="effect1_dropShadow_0_1"/>
<feBlend mode="normal" in="SourceGraphic" in2="effect1_dropShadow_0_1" result="shape"/>
</filter>
</defs>
</svg>
