<svg xmlns="http://www.w3.org/2000/svg" viewBox="-3 -3 500 250" fill="none" stroke="#1B2D37" stroke-width="3" stroke-linecap="square"><path d="M 100 5 h-43 v20 h-20 v-20 h-36 v64 h-156 v40 h484 v-24 h-400 v400 h24 v-484 h-40 v156 h-64 v36 h20 v20 h-20 v43 v43 h20 v20 h-20 v36 h64 v156 h40 v-484 h-24 v400 h400 v-24 h-484 v40 h156 v64 h36 v-20 h20 v20 h43 h43 v-20 h20 v20 h36 v-64 h156 v-40 h-484 v24 h400 v-400 h-24 v484 h40 v-156 h64 v-36 h-20 v-20 h20 v-43 v-43 h-20 v-20 h20 v-36 h-64 v-156 h-40 v484 h24 v-400 h-400 v24 h484 v-40 h-156 v-64 h-36 v20 h-20 v-20 h-43"></path><rect width="500px" height="250px"></rect></svg>