<?xml version="1.0" standalone="no"?>
<!DOCTYPE svg PUBLIC "-//W3C//DTD SVG 20010904//EN"
 "http://www.w3.org/TR/2001/REC-SVG-20010904/DTD/svg10.dtd">
<svg version="1.0" xmlns="http://www.w3.org/2000/svg"
 width="1881.000000pt" height="393.000000pt" viewBox="0 0 1881.000000 393.000000"
 preserveAspectRatio="xMidYMid meet">

<g transform="translate(0.000000,393.000000) scale(0.100000,-0.100000)"
    fill="#ffdc41" background-color="#ffffff">
<path d="M13298 3863 c-16 -2 -28 -8 -28 -11 0 -4 -21 -14 -46 -21 -25 -8 -48
-20 -51 -27 -3 -8 -11 -14 -17 -14 -19 0 -123 -117 -130 -146 -4 -15 -13 -32
-19 -39 -7 -7 -19 -32 -27 -56 -8 -24 -17 -46 -20 -49 -9 -7 -30 -117 -30
-157 0 -18 -4 -33 -10 -33 -6 0 -10 -45 -10 -115 0 -70 4 -115 10 -115 6 0 10
-16 10 -36 0 -47 22 -178 30 -184 4 -3 15 -31 24 -62 9 -32 20 -58 24 -58 5 0
16 -22 26 -50 10 -27 21 -50 25 -50 5 0 16 -18 26 -40 10 -22 22 -40 27 -40 4
0 8 -6 8 -14 0 -8 8 -21 18 -28 10 -7 26 -30 35 -50 10 -21 22 -38 28 -38 5 0
14 -11 19 -25 5 -14 17 -28 25 -31 8 -4 15 -12 15 -20 0 -7 8 -19 18 -26 9 -7
25 -26 35 -41 20 -30 39 -54 75 -91 12 -13 22 -27 22 -31 0 -4 10 -18 23 -31
38 -40 55 -62 68 -86 12 -23 18 -31 58 -75 11 -12 28 -37 37 -54 9 -18 22 -38
28 -45 7 -6 18 -31 26 -55 8 -24 17 -46 20 -49 9 -8 40 -127 40 -154 0 -13 6
-26 13 -28 9 -4 12 -44 12 -155 0 -129 -2 -152 -17 -167 -10 -10 -18 -23 -18
-31 0 -15 -59 -85 -73 -85 -4 0 -15 -7 -23 -15 -19 -19 -136 -21 -156 -2 -7 6
-25 18 -39 25 -27 14 -59 60 -59 85 0 9 -4 17 -9 19 -18 6 -31 162 -31 374 l0
214 -185 0 -185 0 0 -530 0 -530 184 0 185 0 3 50 3 51 33 -31 c18 -16 37 -30
42 -30 5 0 15 -6 23 -14 16 -16 98 -46 127 -46 11 0 20 -4 20 -10 0 -6 30 -10
70 -10 40 0 70 4 70 10 0 6 13 10 28 10 34 0 122 29 122 40 0 4 14 13 31 20
33 14 80 57 119 110 14 18 31 39 38 46 7 7 20 30 28 51 9 21 19 40 23 43 9 6
41 103 41 124 0 8 5 16 10 18 21 7 34 250 22 386 -7 69 -16 128 -21 131 -4 4
-16 42 -26 86 -9 44 -21 82 -25 85 -4 3 -15 29 -24 58 -10 28 -21 52 -25 52
-4 0 -13 18 -20 40 -6 22 -15 40 -20 40 -4 0 -14 18 -21 40 -8 23 -18 44 -24
48 -6 4 -20 26 -31 49 -11 24 -23 43 -28 43 -4 0 -12 11 -17 25 -5 14 -14 25
-19 25 -5 0 -11 8 -15 18 -8 26 -29 55 -48 70 -10 7 -18 18 -18 24 0 6 -10 21
-22 33 -13 12 -34 36 -48 54 -14 18 -37 47 -52 64 -15 18 -28 35 -28 39 0 3
-18 26 -40 50 -64 70 -86 100 -96 131 -4 9 -10 17 -15 17 -5 0 -16 15 -25 33
-9 17 -20 34 -23 37 -4 3 -13 21 -21 40 -8 19 -20 41 -26 47 -7 7 -18 39 -25
70 -7 32 -18 61 -23 65 -14 9 -15 276 -1 286 6 4 15 16 21 26 6 11 19 24 30
30 10 6 22 16 26 21 4 6 40 10 81 10 57 0 77 -4 91 -18 10 -9 25 -21 35 -26
10 -6 24 -29 31 -53 8 -24 19 -46 24 -50 7 -4 12 -89 14 -218 l4 -210 184 0
184 0 0 455 0 455 -184 0 -185 0 -3 -46 -3 -46 -26 23 c-46 42 -81 64 -113 72
-17 5 -34 13 -37 18 -6 11 -168 20 -211 12z m142 -63 c0 -5 9 -10 20 -10 23 0
70 -20 88 -37 7 -7 17 -13 22 -13 5 0 24 -13 42 -30 25 -23 42 -30 73 -30 50
0 65 14 65 57 l0 33 120 0 120 0 0 -395 0 -395 -120 0 -120 0 0 138 c-1 150
-14 285 -30 290 -6 2 -10 10 -10 17 0 39 -60 107 -109 123 -42 15 -163 15
-214 1 -37 -10 -87 -53 -87 -76 0 -6 -5 -13 -11 -15 -16 -5 -29 -76 -29 -170
0 -91 17 -239 29 -248 3 -3 15 -31 24 -62 10 -32 22 -58 27 -58 4 0 11 -13 15
-28 5 -24 19 -47 67 -103 7 -8 21 -29 31 -47 19 -33 43 -63 94 -118 17 -19 33
-38 35 -43 5 -13 61 -83 86 -107 12 -12 22 -26 22 -33 0 -6 9 -16 20 -23 11
-7 20 -18 20 -25 0 -6 8 -18 18 -25 9 -7 26 -30 37 -50 11 -21 23 -38 27 -38
4 0 15 -17 24 -37 10 -21 24 -42 31 -46 7 -4 13 -14 13 -22 0 -7 6 -20 13 -27
6 -7 21 -31 32 -53 11 -22 23 -42 26 -45 3 -3 14 -27 24 -55 11 -27 22 -52 26
-55 4 -3 12 -24 18 -47 6 -23 15 -43 20 -45 5 -2 17 -43 27 -93 10 -49 23 -93
29 -97 14 -10 14 -346 -1 -356 -5 -4 -19 -44 -29 -89 -10 -46 -22 -83 -26 -83
-4 0 -12 -13 -18 -30 -5 -16 -14 -30 -20 -30 -5 0 -14 -12 -19 -27 -18 -48
-93 -133 -118 -133 -8 0 -14 -5 -14 -10 0 -6 -12 -16 -27 -23 -16 -6 -34 -17
-40 -23 -7 -7 -44 -18 -83 -25 -61 -11 -81 -10 -145 4 -43 9 -84 25 -97 36
-12 12 -26 21 -30 21 -5 0 -24 16 -44 35 -61 62 -144 39 -144 -40 l0 -35 -120
0 -120 0 0 465 0 465 120 0 120 0 0 -200 c0 -127 4 -200 10 -200 6 0 10 -15
10 -33 0 -46 21 -147 30 -147 4 0 11 -11 14 -25 10 -40 71 -94 121 -106 66
-17 214 -7 230 14 7 9 16 17 21 17 12 0 64 48 64 59 0 4 9 18 19 30 41 47 53
246 26 425 -8 55 -19 102 -24 105 -4 3 -14 30 -21 59 -6 28 -15 52 -19 52 -4
0 -16 25 -26 55 -11 30 -22 55 -25 55 -3 0 -14 15 -25 33 -10 17 -24 36 -32
40 -7 4 -13 14 -13 20 0 7 -12 27 -27 44 -16 17 -37 43 -48 58 -11 15 -30 37
-42 50 -13 12 -23 26 -23 31 0 4 -9 17 -20 29 -46 47 -80 90 -80 102 0 7 -9
17 -20 23 -11 6 -20 17 -20 25 0 8 -11 22 -25 31 -14 9 -25 23 -25 30 0 8 -6
17 -14 20 -7 3 -22 23 -32 44 -11 22 -22 40 -26 40 -4 0 -15 17 -25 37 -9 21
-25 45 -35 55 -10 10 -18 24 -18 32 0 8 -6 16 -13 19 -6 2 -18 22 -26 43 -8
22 -17 41 -20 44 -10 7 -41 108 -41 131 0 11 -4 19 -9 19 -11 0 -31 158 -31
253 0 83 18 227 29 227 4 0 13 27 20 61 8 33 19 66 25 72 7 7 20 29 29 50 10
20 22 37 27 37 6 0 10 5 10 11 0 15 74 89 89 89 6 0 14 7 17 15 4 8 31 20 65
27 32 7 59 16 59 20 0 4 20 8 45 8 25 0 45 -4 45 -10z"/>
<path d="M390 3645 l0 -185 95 0 95 0 0 -45 c0 -25 -4 -45 -8 -45 -4 0 -16
-83 -27 -185 -10 -102 -21 -185 -25 -185 -4 0 -13 -58 -20 -130 -7 -71 -16
-130 -20 -130 -4 0 -15 -82 -25 -182 -10 -101 -22 -185 -25 -188 -4 -3 -15
-85 -25 -182 -10 -98 -22 -178 -25 -178 -4 0 -13 -61 -20 -135 -7 -74 -16
-135 -20 -135 -4 0 -15 -80 -25 -177 -10 -98 -22 -180 -25 -183 -4 -3 -10 -39
-14 -80 -4 -41 -9 -90 -13 -108 l-5 -32 -94 0 -94 0 0 -185 0 -185 405 0 405
0 0 185 0 185 -96 0 -96 0 7 117 c4 65 11 120 15 123 4 3 12 86 19 185 6 99
14 199 17 223 l6 42 193 0 193 0 6 -42 c3 -24 11 -124 17 -223 7 -99 15 -182
19 -185 4 -3 11 -58 15 -122 l7 -118 -96 0 -96 0 0 -185 0 -185 405 0 405 0 0
185 0 185 -94 0 -94 0 -6 33 c-3 17 -8 67 -12 110 -4 42 -10 77 -14 77 -3 0
-12 63 -20 140 -7 77 -16 140 -20 140 -4 0 -15 78 -25 173 -10 94 -21 174 -25
177 -4 3 -15 84 -25 180 -10 96 -21 177 -25 180 -4 3 -13 67 -20 143 -7 75
-16 137 -20 137 -3 0 -15 79 -25 175 -10 96 -21 175 -25 175 -4 0 -15 83 -25
185 -11 102 -23 185 -27 185 -4 0 -8 20 -8 45 l0 45 95 0 95 0 0 185 0 185
-555 0 -555 0 0 -185z m1050 5 l0 -120 -75 0 c-62 0 -80 -4 -97 -20 -20 -18
-21 -26 -14 -132 4 -62 10 -115 15 -118 4 -3 16 -84 26 -180 10 -96 21 -177
25 -180 6 -5 41 -294 40 -342 0 -16 4 -28 8 -28 5 0 17 -79 27 -175 10 -96 22
-175 25 -175 4 0 13 -61 20 -135 7 -74 16 -135 20 -135 3 0 15 -80 25 -177 10
-98 21 -180 25 -183 4 -3 15 -85 25 -182 10 -98 22 -178 26 -178 5 0 9 -15 9
-33 0 -50 14 -57 107 -57 l83 0 0 -125 0 -125 -345 0 -345 0 0 125 0 125 84 0
c63 0 87 4 96 15 11 13 11 54 0 220 -7 113 -16 205 -20 205 -4 0 -10 48 -14
107 -11 179 -18 234 -33 249 -21 21 -455 21 -476 0 -16 -16 -23 -70 -33 -243
-4 -62 -10 -113 -14 -113 -4 0 -13 -92 -20 -205 -11 -166 -11 -207 0 -220 9
-11 33 -15 96 -15 l84 0 0 -125 0 -125 -345 0 -345 0 0 125 0 125 84 0 c55 0
87 4 94 13 6 6 14 45 17 85 4 39 11 72 15 72 4 0 13 63 20 140 7 77 16 140 20
140 3 0 15 80 25 178 10 97 21 179 25 182 4 3 15 84 25 180 10 96 21 177 25
180 7 5 30 195 30 248 0 17 4 32 8 32 5 0 17 78 27 173 10 94 21 174 25 177 4
3 15 84 25 180 10 96 22 177 26 180 5 3 11 56 15 118 7 106 6 114 -14 132 -17
16 -35 20 -97 20 l-75 0 0 120 0 120 495 0 495 0 0 -120z"/>
<path d="M872 3610 c-6 -11 -12 -38 -12 -60 0 -22 -4 -40 -9 -40 -4 0 -14 -88
-21 -195 -7 -107 -16 -195 -20 -195 -3 0 -15 -117 -25 -260 -10 -143 -21 -260
-25 -260 -4 0 -13 -91 -20 -203 -10 -157 -10 -208 -1 -225 11 -22 16 -22 206
-22 190 0 195 0 206 22 9 17 9 68 -1 225 -7 112 -16 203 -20 203 -4 0 -13 87
-20 193 -7 105 -16 194 -20 197 -4 3 -15 121 -25 263 -10 141 -22 257 -27 257
-4 0 -8 19 -8 43 -1 63 -16 77 -86 77 -48 0 -61 -4 -72 -20z m102 -87 c3 -21
6 -59 6 -85 0 -27 4 -48 8 -48 5 0 17 -121 27 -270 10 -148 21 -270 25 -270 3
0 15 -117 25 -260 10 -143 22 -260 27 -260 4 0 8 -25 8 -55 l0 -55 -156 0
-156 0 7 118 c4 64 11 119 15 122 4 3 13 92 20 198 7 105 16 192 20 192 4 0
15 122 25 270 10 149 22 270 27 270 4 0 8 21 8 48 0 88 10 122 35 122 18 0 24
-7 29 -37z"/>
<path d="M2940 3645 l0 -185 115 0 115 0 0 -1150 0 -1150 -115 0 -115 0 0
-185 0 -185 455 0 455 0 0 185 0 185 -125 0 -125 0 0 510 0 510 155 0 155 0 0
185 0 185 -155 0 -155 0 0 455 0 455 185 0 185 0 0 -260 0 -260 185 0 185 0 0
445 0 445 -700 0 -700 0 0 -185z m1330 -260 l0 -385 -120 0 -120 0 0 248 c-1
189 -4 251 -14 265 -12 15 -35 17 -231 17 -196 0 -219 -2 -231 -17 -20 -26
-20 -990 0 -1015 11 -16 31 -18 150 -18 l136 0 0 -120 0 -120 -138 0 c-94 0
-142 -4 -150 -12 -17 -17 -17 -1099 0 -1116 8 -8 50 -12 125 -12 l113 0 0
-125 0 -125 -395 0 -395 0 0 125 0 125 103 0 c67 0 107 4 115 12 19 19 17
2376 -2 2401 -11 14 -30 17 -115 17 l-101 0 0 120 0 120 635 0 635 0 0 -385z"/>
<path d="M7480 3500 c-14 -16 -40 -37 -57 -47 -18 -10 -33 -20 -33 -23 0 -3
-14 -14 -31 -24 -18 -10 -40 -26 -50 -35 -32 -29 -46 -39 -77 -55 -18 -9 -32
-20 -32 -24 0 -4 -10 -12 -22 -17 -22 -10 -23 -14 -26 -182 l-2 -173 -100 0
-100 0 0 -180 0 -180 99 0 100 0 4 -727 c2 -565 6 -742 17 -791 7 -34 17 -62
20 -62 4 0 15 -21 25 -47 17 -43 39 -71 93 -115 24 -19 103 -48 132 -48 11 0
20 -4 20 -10 0 -6 38 -10 95 -10 57 0 95 4 95 10 0 6 19 10 43 11 23 0 65 6
92 13 l50 11 2 180 c2 99 0 175 -5 169 -14 -20 -101 -37 -162 -31 -49 4 -65
11 -89 34 -16 16 -34 47 -40 69 -7 26 -11 252 -11 692 l0 652 125 0 125 0 0
180 0 180 -125 0 -125 0 0 305 c0 329 -1 332 -50 275z m-3 -630 c16 -18 30
-20 130 -20 l113 0 0 -115 0 -115 -112 0 c-78 -1 -118 -5 -130 -14 -17 -12
-18 -58 -18 -705 0 -384 4 -691 9 -691 4 0 11 -16 14 -36 7 -39 52 -90 100
-112 15 -6 66 -12 113 -12 l85 0 -3 -102 -3 -102 -35 -8 c-90 -19 -217 -21
-293 -4 -43 10 -77 21 -77 25 0 4 -10 13 -23 20 -13 7 -32 27 -42 44 -10 18
-24 37 -31 44 -6 7 -15 29 -19 50 -4 21 -11 40 -15 43 -23 14 -30 210 -30 857
0 786 14 703 -114 703 l-76 0 0 115 0 115 79 0 c114 0 111 -5 111 201 0 97 4
169 9 169 5 0 16 6 23 14 8 7 28 21 46 30 18 9 32 20 32 24 0 4 17 16 37 27
21 11 47 28 58 38 11 10 25 22 30 26 7 5 11 -77 13 -241 2 -217 4 -251 19
-268z"/>
<path d="M14725 3501 c-11 -17 -26 -32 -35 -35 -17 -6 -45 -24 -71 -46 -10 -8
-30 -24 -45 -35 -14 -11 -34 -27 -43 -35 -9 -9 -33 -24 -54 -33 -20 -10 -37
-21 -37 -25 0 -4 -10 -12 -22 -17 -22 -10 -23 -14 -26 -182 l-2 -173 -95 0
-95 0 0 -180 0 -180 95 0 95 0 0 -667 c0 -636 8 -854 30 -861 6 -2 10 -11 10
-20 0 -24 31 -102 41 -102 5 0 9 -6 9 -14 0 -15 58 -76 73 -76 4 0 15 -7 23
-15 8 -8 42 -20 74 -27 33 -6 60 -16 60 -20 0 -4 43 -8 95 -8 52 0 95 4 95 9
0 4 28 11 63 14 34 3 77 11 95 17 l32 12 0 174 c0 109 -4 174 -10 174 -5 0
-10 -4 -10 -9 0 -24 -154 -40 -203 -22 -38 15 -75 57 -86 98 -7 25 -11 269
-11 691 l0 652 125 0 125 0 0 180 0 180 -125 0 -125 0 0 305 c0 324 -2 339
-45 276z m-15 -362 c0 -153 4 -258 10 -270 10 -17 22 -19 125 -19 l115 0 0
-115 0 -115 -113 0 c-75 0 -117 -4 -125 -12 -17 -17 -17 -1358 0 -1426 14 -56
61 -106 114 -121 22 -6 72 -11 112 -11 l73 0 -3 -102 -3 -102 -35 -8 c-125
-26 -320 -16 -355 18 -7 8 -17 14 -22 14 -13 0 -61 54 -74 84 -7 14 -15 26
-19 26 -4 0 -13 28 -20 63 -7 34 -18 65 -24 69 -8 5 -12 230 -14 745 -2 506
-6 741 -14 750 -7 9 -38 13 -94 13 l-84 0 0 115 0 115 85 0 c73 0 86 3 95 19
6 11 10 90 10 185 0 138 2 166 15 166 7 0 18 6 22 13 4 6 23 20 42 31 19 10
42 26 52 35 11 9 28 24 39 34 11 9 24 17 30 17 5 0 15 9 22 20 7 11 18 20 25
20 10 0 13 -56 13 -251z"/>
<path d="M4787 2937 c-38 -7 -72 -18 -75 -24 -4 -6 -22 -14 -39 -18 -18 -3
-36 -12 -40 -18 -5 -7 -23 -20 -41 -30 -38 -22 -112 -96 -112 -113 0 -6 -6
-14 -14 -17 -8 -3 -19 -22 -26 -41 -6 -20 -15 -36 -20 -36 -5 0 -16 -35 -26
-77 -10 -43 -22 -81 -28 -85 -24 -17 31 -40 152 -63 17 -4 32 -10 32 -14 0 -4
30 -13 68 -21 37 -7 72 -15 77 -17 7 -2 16 28 24 72 7 41 18 81 25 88 7 7 18
22 25 35 6 12 17 22 23 22 6 0 16 7 22 15 16 22 113 31 172 16 44 -11 83 -42
84 -68 0 -6 5 -13 10 -15 21 -7 31 -137 28 -362 l-3 -229 -30 29 c-16 16 -42
35 -57 43 -16 8 -28 18 -28 22 0 5 -27 14 -60 21 -33 6 -60 16 -60 20 0 4 -29
8 -65 8 -36 0 -65 -4 -65 -9 0 -5 -22 -11 -50 -15 -27 -4 -55 -12 -62 -19 -7
-7 -28 -19 -46 -26 -36 -15 -132 -101 -132 -118 0 -7 -8 -18 -18 -25 -10 -7
-27 -34 -37 -60 -10 -27 -21 -48 -25 -48 -4 0 -13 -30 -20 -67 -7 -38 -18 -71
-24 -75 -15 -10 -15 -406 0 -416 6 -4 17 -35 24 -69 7 -35 16 -63 19 -63 4 0
13 -20 20 -45 7 -25 18 -49 25 -53 6 -4 19 -22 30 -41 22 -39 95 -111 113
-111 7 0 13 -4 13 -9 0 -12 80 -41 113 -41 15 0 27 -4 27 -10 0 -6 27 -10 60
-10 33 0 60 4 60 8 0 4 27 14 61 21 33 8 63 20 66 27 3 8 11 14 17 14 11 0 51
41 114 115 l22 27 0 -86 0 -86 590 0 590 0 0 180 0 180 -75 0 -75 0 0 655 c0
644 0 654 20 665 11 6 20 15 20 21 0 16 51 62 83 77 56 24 151 10 164 -25 4
-10 11 -21 17 -25 8 -5 12 -269 14 -868 l3 -860 264 0 265 0 0 180 0 180 -75
0 -75 0 0 668 c0 622 -7 826 -29 842 -4 3 -13 24 -21 48 -7 23 -16 42 -21 42
-4 0 -9 10 -13 23 -5 23 -91 117 -106 117 -5 0 -16 7 -25 16 -26 27 -134 40
-216 26 -39 -7 -77 -19 -86 -27 -8 -8 -19 -15 -24 -15 -6 0 -43 -32 -82 -72
l-72 -72 -3 87 -3 87 -264 0 -265 0 0 -180 0 -180 75 0 75 0 0 -705 0 -705
-135 0 -135 0 0 644 c0 535 -3 658 -15 732 -9 49 -20 91 -24 94 -5 3 -14 22
-22 43 -7 20 -16 37 -19 37 -3 0 -14 17 -25 38 -19 35 -52 71 -67 72 -4 0 -18
10 -32 23 -41 37 -51 44 -89 58 -20 7 -37 16 -37 20 0 28 -264 46 -373 26z
m271 -67 c2 -5 10 -10 17 -10 27 0 110 -32 118 -46 4 -8 14 -14 22 -14 19 0
125 -106 125 -125 0 -8 6 -18 13 -22 14 -8 47 -99 47 -127 0 -8 6 -16 13 -18
9 -4 13 -154 15 -699 3 -668 4 -694 22 -711 17 -16 40 -18 181 -18 142 0 163
2 175 17 19 25 20 1493 2 1511 -7 7 -39 12 -75 12 l-63 0 0 115 0 115 205 0
205 0 0 -68 c0 -40 5 -73 12 -80 7 -7 32 -12 55 -12 36 0 49 6 78 35 19 19 35
39 35 44 0 6 14 17 30 26 17 9 30 19 30 24 0 10 84 41 112 41 10 0 18 5 18 10
0 6 14 10 30 10 17 0 30 -4 30 -9 0 -5 18 -11 40 -15 22 -3 49 -15 60 -26 11
-11 23 -20 27 -20 11 0 63 -63 63 -77 0 -6 6 -18 13 -25 15 -15 47 -133 47
-173 0 -14 5 -25 10 -25 7 0 10 -239 10 -697 1 -565 3 -701 14 -715 10 -14 28
-18 75 -18 l61 0 0 -115 0 -115 -205 0 -205 0 0 818 c-1 449 -5 836 -9 859 -4
23 -15 49 -24 58 -9 9 -23 26 -32 38 -14 20 -24 22 -121 22 -90 0 -107 -3
-115 -17 -6 -10 -15 -18 -20 -18 -15 0 -69 -52 -69 -66 0 -6 -10 -18 -22 -26
l-23 -15 -3 -689 c-2 -520 0 -695 9 -711 11 -20 20 -23 76 -23 l63 0 0 -115 0
-115 -525 0 -525 0 0 65 c0 81 -17 105 -75 105 -33 0 -44 -5 -65 -32 -24 -30
-93 -100 -123 -125 -20 -16 -114 -43 -151 -43 -42 0 -130 25 -152 41 -46 37
-134 132 -134 144 0 8 -4 15 -8 15 -5 0 -17 25 -27 55 -11 30 -22 55 -26 55
-4 0 -13 30 -20 68 -26 126 -11 459 20 482 4 3 15 31 25 63 10 31 21 57 25 57
4 0 14 12 22 27 22 43 106 121 144 134 19 7 35 16 35 20 0 4 31 13 69 20 54 9
83 9 127 0 32 -6 60 -14 63 -19 3 -4 20 -14 36 -22 17 -8 46 -32 66 -52 30
-31 43 -38 75 -38 73 0 74 3 74 305 0 146 -4 265 -9 265 -4 0 -11 26 -14 58
-2 32 -11 69 -18 82 -30 51 -82 90 -120 90 -11 0 -19 5 -19 10 0 6 -35 10 -85
10 -47 0 -85 -4 -85 -9 0 -5 -12 -11 -27 -14 -63 -13 -143 -127 -143 -203 0
-15 -6 -24 -15 -24 -8 0 -15 4 -15 8 0 5 -31 15 -70 22 -38 7 -70 17 -70 22 0
4 -10 8 -21 8 -19 0 -21 4 -16 37 4 20 10 39 15 42 5 3 13 17 17 31 4 14 16
33 26 43 11 10 19 23 19 30 0 7 16 27 35 46 19 19 35 37 35 41 0 4 18 15 40
25 22 10 40 21 40 25 0 8 94 40 116 40 8 0 14 4 14 9 0 6 15 12 33 14 54 8
211 -1 215 -13z"/>
<path d="M4806 1820 c-25 -8 -47 -28 -110 -100 -16 -18 -36 -97 -36 -139 0
-17 -4 -31 -10 -31 -6 0 -10 -50 -10 -130 0 -71 4 -130 9 -130 4 0 11 -25 15
-55 8 -68 22 -101 62 -140 74 -72 70 -70 190 -70 92 0 113 3 128 18 10 9 23
17 29 17 7 0 33 22 60 49 l47 50 0 269 0 270 -50 50 c-65 65 -109 82 -213 81
-45 0 -95 -5 -111 -9z m202 -69 c2 -6 9 -11 15 -11 7 0 29 -17 50 -39 l37 -38
0 -236 0 -235 -38 -41 c-23 -24 -51 -43 -70 -47 -18 -4 -32 -10 -32 -15 0 -11
-107 -12 -112 -1 -1 4 -19 14 -38 23 -19 9 -42 29 -50 45 -8 16 -19 32 -23 35
-18 13 -37 128 -37 229 0 110 20 228 42 256 31 39 74 77 98 87 24 11 154 1
158 -12z"/>
<path d="M8317 2937 c-38 -7 -72 -18 -75 -24 -4 -6 -22 -14 -40 -18 -18 -4
-36 -13 -39 -21 -2 -7 -14 -16 -24 -19 -11 -4 -36 -22 -57 -41 -20 -19 -40
-34 -43 -34 -4 0 -14 -16 -23 -35 -9 -19 -21 -35 -25 -35 -5 0 -16 -21 -26
-47 -10 -27 -21 -50 -25 -53 -11 -7 -39 -140 -34 -154 3 -7 45 -21 94 -31 50
-10 90 -21 90 -25 0 -4 15 -10 33 -14 17 -3 50 -10 73 -14 l41 -9 12 74 c7 40
16 73 20 73 4 0 15 16 24 35 9 19 22 35 28 35 7 0 17 7 23 16 16 22 131 31
180 14 45 -14 79 -47 96 -92 9 -23 15 -116 18 -308 l4 -275 -24 20 c-12 11
-26 25 -30 31 -4 6 -21 17 -38 24 -16 7 -30 16 -30 21 0 4 -27 14 -60 21 -33
6 -60 16 -60 20 0 4 -27 8 -60 8 -33 0 -60 -4 -60 -10 0 -5 -12 -10 -28 -10
-32 0 -93 -16 -101 -27 -3 -5 -24 -17 -46 -28 -54 -27 -128 -102 -152 -155 -4
-8 -12 -20 -18 -26 -6 -6 -17 -31 -25 -55 -8 -24 -17 -46 -20 -49 -10 -8 -30
-118 -30 -162 0 -21 -4 -38 -10 -38 -6 0 -10 -45 -10 -115 0 -70 4 -115 10
-115 6 0 10 -15 10 -33 0 -48 21 -147 31 -147 5 0 9 -7 9 -15 0 -27 32 -110
46 -118 8 -4 14 -13 14 -20 0 -23 105 -137 126 -137 8 0 14 -4 14 -9 0 -12 80
-41 113 -41 15 0 27 -4 27 -10 0 -6 28 -10 65 -10 37 0 65 4 65 10 0 6 8 10
18 10 27 0 96 27 100 39 2 6 9 11 15 11 18 0 77 59 120 120 17 24 17 23 17
-63 l0 -87 440 0 440 0 0 70 c0 68 1 70 20 60 11 -6 20 -16 20 -23 0 -6 25
-35 55 -63 40 -38 66 -54 95 -59 22 -4 40 -11 40 -16 0 -5 23 -9 50 -9 28 0
50 4 50 8 0 4 26 13 58 20 31 6 65 20 74 29 10 10 33 31 53 48 19 16 35 34 35
40 0 5 11 23 25 39 14 17 31 49 37 73 5 24 14 43 18 43 10 0 30 89 30 130 0
17 5 30 10 30 6 0 10 43 10 110 0 61 -4 110 -8 110 -5 0 -13 37 -19 81 -6 45
-15 84 -20 88 -4 3 -17 32 -27 64 -11 31 -23 57 -27 57 -5 0 -16 17 -26 38 -9
20 -24 42 -33 49 -17 12 -74 69 -123 122 -16 17 -35 31 -42 31 -7 0 -20 11
-29 25 -9 14 -23 25 -31 25 -8 0 -19 9 -25 20 -6 11 -16 20 -22 20 -14 0 -168
152 -168 167 0 6 -6 18 -14 25 -31 31 -49 233 -26 293 28 74 109 98 168 49 18
-15 32 -33 32 -40 0 -7 5 -14 10 -16 15 -5 30 -115 30 -215 l0 -83 170 0 170
0 0 345 0 345 -170 0 -170 0 0 -82 c-1 -65 -3 -79 -11 -64 -6 10 -19 26 -28
36 -9 10 -25 29 -36 43 -12 13 -32 30 -45 37 -14 7 -27 16 -30 20 -10 13 -74
30 -114 30 -54 -1 -120 -16 -124 -29 -2 -6 -9 -11 -15 -11 -12 0 -104 -93
-138 -139 -9 -12 -22 -40 -30 -64 -7 -23 -16 -44 -20 -47 -13 -10 -30 -117
-36 -220 -5 -105 16 -286 34 -299 5 -3 14 -24 21 -47 6 -22 21 -51 32 -64 11
-13 20 -29 20 -36 0 -7 9 -18 20 -24 11 -6 20 -16 20 -22 0 -14 155 -168 168
-168 5 0 17 -11 26 -25 9 -14 22 -25 29 -25 6 0 25 -14 41 -30 16 -17 35 -30
43 -30 7 0 13 -3 13 -8 0 -4 26 -35 58 -69 31 -34 63 -69 71 -78 36 -45 54
-245 30 -341 -8 -32 -19 -49 -35 -56 -13 -6 -24 -15 -24 -20 0 -4 -20 -8 -45
-8 -25 0 -45 4 -45 9 0 5 -9 11 -20 14 -11 3 -24 17 -30 31 -5 14 -14 26 -18
26 -5 0 -15 28 -22 63 -7 34 -17 64 -21 67 -4 3 -11 51 -15 108 l-7 102 -168
0 -169 0 0 -175 0 -175 -75 0 -75 0 0 655 c0 430 -3 655 -10 655 -5 0 -10 11
-10 26 0 39 -31 164 -40 164 -5 0 -14 16 -20 35 -6 19 -15 35 -20 35 -4 0 -15
16 -24 35 -9 19 -20 35 -24 35 -4 0 -25 16 -47 35 -22 19 -46 35 -52 35 -7 0
-13 4 -13 9 0 5 -16 15 -35 21 -19 6 -35 15 -35 19 0 29 -273 48 -383 28z
m272 -65 c3 -5 30 -15 60 -22 29 -7 61 -21 69 -31 9 -11 22 -19 29 -19 6 0 18
-8 25 -17 7 -10 25 -24 39 -31 14 -7 34 -30 45 -50 10 -20 24 -41 31 -47 6 -5
17 -29 23 -52 6 -24 15 -43 19 -43 24 0 31 -178 31 -795 0 -632 0 -645 20
-665 17 -17 33 -20 126 -20 90 0 109 3 120 17 10 13 13 61 14 181 l0 162 109
0 108 0 12 -117 c6 -65 16 -120 20 -123 5 -3 12 -20 16 -39 4 -18 15 -41 24
-50 10 -10 20 -25 24 -34 4 -10 15 -20 24 -24 10 -4 24 -13 32 -21 21 -21 161
-13 185 11 10 9 22 17 27 17 11 0 39 65 39 91 0 11 5 19 10 19 6 0 10 45 10
115 0 70 -4 115 -10 115 -5 0 -10 10 -10 23 0 31 -29 127 -38 127 -4 0 -16 14
-26 31 -19 31 -95 109 -107 109 -6 0 -34 25 -124 111 -12 10 -24 19 -28 19
-12 0 -167 157 -167 169 0 5 -6 14 -13 18 -8 4 -22 27 -32 51 -11 23 -22 42
-25 42 -4 0 -13 19 -20 43 -8 23 -17 44 -21 47 -10 8 -29 132 -29 194 0 66 20
196 30 196 4 0 13 25 20 55 7 30 17 55 22 55 5 0 16 16 24 35 8 19 18 35 23
35 4 0 13 11 19 25 6 14 18 25 26 25 7 0 16 6 19 14 3 7 26 19 51 27 25 7 46
17 46 21 0 4 11 8 25 8 14 0 25 -4 25 -10 0 -5 7 -10 15 -10 42 0 103 -48 131
-102 9 -18 24 -38 33 -45 21 -16 93 -17 109 -1 7 7 12 39 12 75 l0 63 110 0
110 0 0 -280 0 -280 -108 0 -109 0 -6 105 c-4 57 -11 124 -17 148 -10 45 -47
94 -87 115 -32 17 -149 15 -188 -4 -30 -14 -65 -64 -65 -93 0 -6 -4 -11 -10
-11 -6 0 -10 -45 -10 -115 0 -70 4 -115 10 -115 6 0 10 -12 10 -26 0 -40 22
-105 37 -111 7 -3 13 -10 13 -17 0 -6 22 -33 50 -59 27 -26 55 -56 62 -66 7
-10 27 -26 43 -37 17 -10 34 -24 38 -31 4 -7 14 -13 22 -13 8 0 22 -11 31 -25
9 -14 21 -25 26 -25 13 0 168 -154 168 -168 0 -6 9 -16 20 -22 11 -6 20 -17
20 -25 0 -7 6 -20 13 -27 7 -7 22 -38 33 -68 10 -30 22 -57 26 -61 4 -3 13
-51 20 -108 9 -80 9 -126 0 -209 -7 -58 -15 -108 -19 -111 -5 -3 -17 -31 -27
-61 -11 -30 -28 -64 -38 -74 -10 -11 -18 -23 -18 -27 0 -11 -54 -65 -72 -72
-10 -3 -18 -10 -18 -15 0 -5 -25 -17 -56 -27 -84 -26 -148 -10 -215 55 -27 26
-49 52 -49 58 0 34 -110 58 -138 30 -7 -7 -12 -38 -12 -70 l0 -58 -375 0 -375
0 0 69 c0 84 -13 101 -75 101 -36 0 -46 -5 -61 -28 -26 -40 -107 -122 -121
-122 -6 0 -13 -5 -15 -10 -4 -13 -102 -40 -143 -40 -47 0 -138 28 -147 45 -5
8 -14 15 -20 15 -20 0 -116 110 -123 140 -4 17 -11 30 -15 30 -5 0 -17 26 -27
58 -9 31 -21 60 -25 63 -5 3 -14 56 -20 118 -13 121 1 342 22 349 5 2 10 10
10 17 0 18 33 119 40 125 4 3 15 20 26 39 37 66 138 151 178 151 9 0 16 4 16
9 0 5 26 15 58 22 66 14 183 -1 209 -26 8 -8 19 -15 25 -15 5 0 29 -20 54 -45
37 -38 49 -45 83 -45 74 0 73 -6 69 342 -2 209 -7 311 -14 316 -6 4 -14 20
-18 36 -11 44 -83 106 -122 106 -8 0 -14 5 -14 10 0 6 -35 10 -85 10 -47 0
-85 -4 -85 -9 0 -5 -15 -12 -33 -15 -29 -5 -68 -40 -116 -101 -13 -17 -31 -76
-31 -101 0 -15 -6 -24 -15 -24 -8 0 -15 4 -15 9 0 5 -29 14 -65 21 -36 7 -65
16 -65 21 0 5 -11 9 -25 9 -20 0 -25 5 -25 25 0 14 4 25 10 25 5 0 14 19 21
43 6 23 20 50 30 60 10 10 19 22 19 27 0 13 106 120 118 120 6 0 17 6 25 14
14 15 98 46 122 46 8 0 15 4 15 9 0 6 15 12 33 14 50 8 209 -1 216 -11z"/>
<path d="M8340 1818 c-30 -8 -50 -26 -113 -99 -17 -19 -37 -96 -37 -138 0 -17
-4 -31 -10 -31 -6 0 -10 -50 -10 -130 0 -71 4 -130 9 -130 4 0 11 -27 15 -60
4 -33 13 -66 21 -74 8 -8 15 -19 15 -24 0 -13 72 -82 86 -82 7 0 14 -6 17 -12
2 -9 35 -13 114 -13 91 0 112 3 127 18 10 9 23 17 30 17 7 0 21 10 33 23 11
12 32 32 46 44 l27 23 0 275 0 276 -50 48 c-28 27 -69 56 -90 65 -45 18 -173
20 -230 4z m198 -66 c2 -7 9 -12 16 -12 7 0 29 -16 49 -37 l37 -36 0 -238 0
-238 -37 -40 c-20 -22 -49 -43 -65 -46 -15 -4 -28 -11 -28 -16 0 -5 -27 -9
-60 -9 -33 0 -60 4 -60 8 0 5 -18 16 -39 25 -27 12 -44 29 -56 55 -10 20 -21
39 -25 42 -15 10 -30 114 -30 209 0 94 15 211 28 221 4 3 14 21 23 40 9 19 29
42 45 50 16 8 35 21 43 29 18 17 153 11 159 -7z"/>
<path d="M15515 2933 c-38 -8 -72 -18 -75 -22 -3 -5 -15 -14 -28 -20 -45 -24
-129 -104 -137 -132 -4 -10 -10 -19 -15 -19 -5 0 -14 -16 -21 -35 -7 -19 -16
-35 -21 -35 -4 0 -15 -26 -24 -57 -9 -32 -20 -60 -25 -63 -9 -6 -39 -166 -39
-205 0 -13 -4 -25 -9 -27 -13 -4 -31 -284 -31 -470 0 -178 19 -452 31 -456 5
-2 9 -16 9 -30 0 -36 32 -196 40 -202 3 -3 15 -32 25 -65 10 -33 24 -66 32
-73 7 -7 13 -20 13 -27 0 -8 6 -18 13 -22 14 -9 35 -41 43 -66 4 -9 9 -17 13
-17 3 0 22 -14 41 -30 19 -16 38 -30 42 -30 4 0 14 -7 23 -16 16 -17 104 -44
143 -44 12 0 22 -4 22 -10 0 -6 33 -10 80 -10 47 0 80 4 80 10 0 6 11 10 25
10 33 0 115 28 132 46 8 8 18 14 22 14 11 0 79 67 106 103 11 15 25 33 30 40
14 16 45 82 45 96 0 6 4 11 9 11 5 0 17 32 26 70 9 39 21 70 25 70 4 0 13 39
20 88 7 48 16 89 20 92 11 7 30 297 30 456 0 153 -19 437 -29 444 -4 3 -13 44
-20 93 -7 48 -16 87 -21 87 -4 0 -13 27 -20 61 -7 33 -19 66 -25 73 -7 7 -16
26 -19 43 -4 17 -16 40 -26 51 -11 12 -20 25 -20 29 0 8 -43 61 -72 91 -34 33
-72 62 -92 68 -11 4 -24 11 -27 16 -10 16 -129 37 -204 37 -38 0 -101 -7 -140
-16z m244 -60 c3 -5 26 -15 50 -23 24 -8 49 -19 55 -26 7 -6 26 -19 43 -27 17
-9 37 -30 45 -47 7 -16 16 -30 21 -30 4 0 15 -16 24 -35 9 -19 20 -35 23 -35
4 0 13 -18 20 -40 7 -22 16 -40 20 -40 4 0 15 -35 26 -77 10 -43 22 -80 26
-83 9 -7 38 -237 38 -302 0 -26 5 -48 10 -48 6 0 10 -77 10 -210 0 -133 -4
-210 -10 -210 -5 0 -10 -19 -10 -43 0 -63 -30 -290 -38 -297 -5 -3 -17 -42
-27 -87 -10 -46 -22 -83 -26 -83 -4 0 -13 -16 -19 -35 -6 -19 -15 -35 -18 -35
-4 0 -13 -15 -21 -32 -15 -35 -24 -47 -64 -88 -36 -36 -53 -49 -84 -62 -15 -7
-33 -18 -40 -24 -20 -19 -140 -37 -201 -30 -67 8 -132 26 -132 37 0 4 -13 12
-30 18 -16 5 -30 15 -30 20 0 6 -6 11 -12 11 -24 1 -71 52 -84 93 -4 9 -9 17
-13 17 -4 0 -15 23 -25 50 -10 27 -21 50 -25 50 -4 0 -14 26 -21 57 -8 32 -17
60 -21 63 -8 6 -39 182 -39 226 0 18 -6 34 -12 37 -17 5 -19 704 -3 715 6 4
19 63 28 132 10 68 22 127 27 130 4 3 11 22 15 43 4 21 13 43 19 50 6 7 17 30
24 53 6 22 23 54 37 70 14 16 25 33 25 37 0 14 54 67 67 67 7 0 16 6 20 13 4
8 31 22 58 32 28 11 52 22 55 26 13 19 206 20 219 2z"/>
<path d="M15558 2647 c-14 -6 -32 -22 -40 -36 -7 -14 -20 -33 -29 -42 -9 -9
-20 -36 -24 -60 -4 -24 -11 -46 -16 -50 -13 -8 -29 -335 -29 -609 0 -267 16
-601 28 -609 4 -4 13 -30 20 -59 8 -37 22 -64 47 -89 34 -35 39 -37 114 -41
102 -6 117 -1 167 47 48 46 61 77 70 169 4 37 12 70 18 74 17 11 15 1020 -1
1026 -7 2 -13 20 -13 40 0 21 -6 62 -14 93 -10 46 -22 66 -64 108 l-51 51 -78
-1 c-43 -1 -90 -6 -105 -12z m142 -57 c0 -5 11 -12 25 -16 13 -3 27 -15 30
-25 4 -10 13 -26 22 -34 20 -20 42 -150 43 -247 0 -45 4 -78 10 -78 6 0 10
-118 10 -335 0 -184 -4 -335 -8 -335 -5 0 -12 -53 -15 -118 -6 -117 -22 -212
-37 -212 -4 0 -13 -12 -19 -28 -15 -37 -61 -56 -122 -50 -75 8 -113 58 -125
166 -4 31 -12 60 -18 64 -17 11 -15 1020 2 1026 6 2 12 15 12 28 0 39 21 118
34 129 7 6 15 18 19 28 4 11 16 21 27 24 11 3 20 9 20 14 0 5 20 9 45 9 25 0
45 -4 45 -10z"/>
<path d="M17175 2928 c-27 -5 -52 -13 -55 -17 -3 -4 -20 -13 -39 -21 -36 -15
-107 -83 -117 -112 -3 -10 -9 -18 -13 -18 -5 0 -14 -13 -21 -30 -7 -16 -15
-30 -19 -30 -4 0 -15 -22 -25 -50 -10 -27 -21 -50 -25 -50 -4 0 -13 -21 -21
-47 -14 -46 -15 -39 -18 160 l-2 207 -290 0 -290 0 0 -180 0 -180 95 0 95 0 0
-705 0 -705 -95 0 -95 0 0 -180 0 -180 395 0 395 0 0 180 0 180 -106 0 -105 0
4 508 c4 483 9 573 34 591 5 3 14 24 21 47 15 51 92 144 119 144 7 0 13 5 13
10 0 6 12 16 28 23 15 6 30 15 33 20 8 12 143 37 197 37 38 0 42 2 42 26 0 53
28 -2 46 -89 9 -48 20 -87 24 -87 4 0 13 -31 20 -70 7 -38 16 -70 20 -70 4 0
15 -40 25 -90 10 -49 21 -90 24 -90 4 0 15 -40 25 -90 11 -49 22 -90 25 -90 4
0 15 -42 25 -92 10 -51 23 -96 28 -99 4 -3 13 -34 20 -70 6 -35 15 -66 19 -70
8 -5 17 -39 35 -136 4 -18 10 -33 14 -33 4 0 15 -40 25 -90 10 -50 21 -90 24
-90 4 0 13 -30 21 -68 7 -37 16 -69 20 -72 3 -3 15 -43 25 -90 9 -47 22 -88
27 -91 12 -8 13 -100 1 -108 -5 -3 -18 -52 -28 -108 -10 -57 -21 -103 -25
-103 -4 0 -13 -33 -20 -72 -7 -40 -18 -76 -24 -80 -6 -4 -84 -8 -173 -8 l-163
0 0 -165 0 -165 305 0 c264 0 305 2 305 15 0 8 4 15 9 15 5 0 14 36 21 80 7
44 16 80 20 80 3 0 15 45 25 100 10 55 21 100 25 100 3 0 15 44 25 98 10 53
21 99 25 102 4 3 15 52 25 110 9 58 21 107 25 110 4 3 13 38 20 78 7 39 16 72
20 72 4 0 15 47 25 105 10 58 21 105 25 105 4 0 15 45 25 100 10 55 22 100 25
100 4 0 13 36 20 80 7 44 15 80 19 80 4 0 15 47 25 105 11 58 22 105 26 105 4
0 15 45 25 100 10 55 21 100 25 100 4 0 13 34 20 75 7 41 16 75 19 75 4 0 16
50 26 110 10 61 22 110 25 110 4 0 15 45 25 100 l18 100 79 0 78 0 0 170 0
170 -330 0 -330 0 0 -170 0 -170 78 0 79 0 -10 -55 c-6 -30 -13 -55 -17 -55
-4 0 -13 -40 -21 -90 -7 -49 -16 -90 -20 -90 -3 0 -14 -47 -24 -105 -10 -58
-22 -105 -27 -105 -4 0 -8 -10 -8 -22 0 -32 -33 -202 -41 -208 -3 -3 -14 -52
-24 -110 -9 -58 -21 -107 -25 -110 -4 -3 -14 -44 -21 -92 -8 -52 -18 -88 -25
-88 -6 0 -17 33 -24 75 -7 41 -17 75 -21 75 -5 0 -9 10 -9 23 0 33 -32 191
-40 197 -4 3 -13 38 -20 78 -7 39 -16 72 -20 72 -4 0 -15 47 -25 105 -10 58
-21 105 -25 105 -4 0 -15 47 -25 105 -10 58 -21 105 -25 105 -4 0 -13 36 -20
80 -7 44 -16 80 -21 80 -5 0 -9 7 -9 15 0 12 16 15 85 15 l85 0 0 170 0 170
-280 0 c-180 0 -280 4 -280 10 0 12 -67 11 -135 -2z m365 -78 l270 0 0 -100 0
-100 -69 0 c-95 0 -105 -11 -98 -104 3 -38 10 -72 15 -75 5 -3 17 -50 27 -103
10 -54 22 -98 26 -98 4 0 12 -38 19 -85 7 -47 15 -85 19 -85 4 0 16 -45 26
-100 10 -55 21 -100 25 -100 4 0 15 -47 25 -105 10 -58 21 -105 25 -105 3 0
12 -36 19 -80 8 -44 17 -80 21 -80 4 0 11 -21 15 -47 11 -76 18 -83 80 -83 63
0 69 7 80 88 4 28 10 52 14 52 4 0 16 52 26 115 10 63 22 115 26 115 3 0 15
52 25 115 10 63 21 115 24 115 4 0 13 35 20 78 7 42 16 79 20 82 3 3 15 53 25
113 10 59 21 107 25 107 8 0 30 140 30 193 0 66 -12 77 -85 77 l-65 0 0 100 0
100 265 0 265 0 0 -100 0 -100 -52 0 c-71 0 -91 -22 -108 -118 -7 -39 -16 -72
-20 -72 -4 0 -13 -35 -20 -77 -7 -43 -16 -80 -20 -83 -3 -3 -15 -51 -25 -107
-10 -57 -21 -103 -25 -103 -4 0 -15 -47 -26 -105 -10 -58 -21 -105 -25 -105
-3 0 -12 -34 -19 -75 -7 -41 -16 -75 -20 -75 -4 0 -15 -45 -25 -100 -10 -55
-22 -100 -27 -100 -4 0 -8 -10 -8 -22 0 -34 -32 -192 -40 -198 -4 -3 -13 -38
-20 -77 -7 -40 -16 -73 -20 -73 -4 0 -15 -45 -25 -100 -10 -55 -21 -100 -25
-100 -4 0 -15 -47 -25 -105 -10 -58 -21 -105 -25 -105 -4 0 -15 -47 -25 -105
-10 -58 -21 -105 -25 -105 -4 0 -13 -36 -20 -80 -7 -44 -16 -80 -20 -80 -3 0
-15 -45 -25 -100 -10 -55 -22 -100 -27 -100 -4 0 -8 -11 -8 -25 l0 -25 -245 0
-245 0 0 100 0 100 146 0 c143 0 147 1 170 25 15 16 25 43 29 80 4 30 10 55
14 55 4 0 16 44 26 98 10 53 23 100 29 104 16 11 15 256 -1 266 -12 7 -20 36
-39 139 -4 18 -10 33 -14 33 -4 0 -15 41 -25 90 -10 49 -21 90 -25 90 -4 0
-13 32 -20 70 -7 39 -16 70 -20 70 -4 0 -15 41 -25 90 -10 50 -21 90 -24 90
-4 0 -15 41 -25 90 -11 50 -22 90 -26 90 -4 0 -12 32 -19 70 -7 39 -16 70 -20
70 -4 0 -16 43 -26 95 -11 52 -22 95 -26 95 -3 0 -14 41 -25 90 -10 50 -21 90
-25 90 -3 0 -14 41 -24 90 -10 50 -20 90 -24 90 -4 0 -12 25 -19 56 -18 75
-36 94 -89 94 -37 0 -45 -4 -55 -25 -9 -19 -19 -25 -45 -25 -18 0 -33 -4 -33
-10 0 -5 -10 -10 -23 -10 -29 0 -140 -29 -147 -38 -3 -4 -18 -16 -35 -26 -36
-24 -51 -36 -73 -58 -41 -43 -55 -62 -69 -96 -8 -21 -19 -40 -24 -43 -5 -3
-15 -32 -21 -65 -7 -32 -17 -62 -23 -66 -6 -5 -11 -190 -13 -539 -4 -628 -17
-569 128 -569 l90 0 0 -115 0 -115 -330 0 -330 0 0 115 0 115 75 0 c127 0 115
-82 115 776 0 690 -1 738 -17 750 -11 8 -47 13 -95 14 l-78 0 0 115 0 115 220
0 220 0 0 -188 c0 -176 1 -189 20 -205 12 -10 37 -17 58 -17 40 0 51 12 67 68
4 12 10 22 15 22 4 0 14 20 21 45 7 25 17 45 20 45 4 0 15 20 24 44 10 25 23
47 31 50 8 3 14 11 14 19 0 7 18 31 39 54 40 42 110 73 163 73 16 0 28 6 28
13 0 6 5 4 11 -5 9 -16 33 -18 279 -18z"/>
<path d="M10170 2750 l0 -170 76 0 c51 0 80 -4 89 -14 8 -7 20 -43 26 -80 7
-36 16 -66 19 -66 4 0 15 -40 26 -90 10 -49 21 -90 25 -90 3 0 14 -40 24 -90
10 -49 21 -90 25 -90 4 0 13 -31 20 -70 7 -38 16 -70 20 -70 4 0 15 -40 25
-90 10 -49 20 -90 24 -90 6 0 23 -67 37 -145 4 -22 11 -42 15 -46 5 -3 13 -29
19 -59 6 -30 14 -56 19 -59 4 -4 16 -46 26 -96 10 -49 22 -92 26 -95 3 -3 15
-43 24 -90 10 -47 21 -87 25 -90 4 -3 13 -34 20 -70 7 -36 17 -67 21 -70 24
-17 23 -191 -1 -210 -4 -3 -13 -36 -20 -75 -7 -38 -16 -72 -20 -75 -4 -3 -13
-39 -21 -80 l-14 -75 -168 -3 -167 -2 0 -165 0 -165 304 0 304 0 10 48 c6 26
13 68 17 95 4 26 11 47 14 47 4 0 16 45 26 100 10 55 21 100 25 100 4 0 13 33
20 73 7 39 16 74 20 77 4 3 16 52 25 110 10 58 21 107 25 110 4 3 15 49 25
103 10 53 22 97 26 97 3 0 12 36 20 80 7 44 16 80 19 80 4 0 15 45 25 100 10
55 21 100 25 100 4 0 15 46 25 103 10 56 21 104 24 107 4 3 16 51 26 108 10
56 21 102 25 102 4 0 13 34 20 75 7 41 16 75 20 75 4 0 15 45 25 100 10 55 21
100 25 100 3 0 15 50 25 110 10 61 22 110 26 110 3 0 12 34 19 75 7 41 17 75
21 75 5 0 9 11 9 25 0 24 2 25 75 25 l75 0 0 170 0 170 -330 0 -330 0 0 -170
0 -170 79 0 78 0 -10 -52 c-6 -29 -13 -55 -17 -58 -4 -3 -15 -54 -25 -115 -10
-60 -21 -112 -25 -115 -4 -3 -16 -54 -26 -115 -10 -60 -21 -112 -25 -115 -3
-3 -12 -39 -20 -80 -7 -41 -16 -77 -19 -80 -4 -3 -15 -52 -25 -110 -9 -58 -21
-107 -25 -110 -4 -3 -14 -44 -21 -92 -8 -52 -18 -88 -25 -88 -6 0 -17 33 -24
75 -7 41 -17 75 -21 75 -5 0 -9 10 -9 23 0 33 -32 191 -40 197 -4 3 -15 48
-25 100 -10 52 -21 97 -25 100 -3 3 -15 51 -25 108 -10 56 -21 102 -25 102 -3
0 -12 36 -19 80 -8 44 -17 80 -21 80 -4 0 -12 33 -19 73 -7 39 -14 82 -18 95
-5 21 -3 22 76 22 l81 0 0 170 0 170 -355 0 -355 0 0 -170z m650 0 l0 -100
-68 0 c-55 0 -71 -4 -85 -20 -17 -21 -25 -110 -9 -110 5 0 17 -45 27 -100 10
-55 22 -100 27 -100 4 0 8 -10 8 -22 0 -34 32 -192 40 -198 4 -3 13 -38 20
-77 7 -40 16 -73 20 -73 4 0 15 -46 25 -102 10 -57 22 -105 26 -108 3 -3 14
-51 24 -107 10 -57 21 -103 25 -103 4 0 11 -21 15 -47 11 -76 18 -83 80 -83
63 0 69 7 80 88 4 28 10 52 14 52 4 0 13 38 20 85 7 47 16 85 20 85 4 0 16 51
26 113 10 61 21 114 25 117 3 3 15 52 25 110 10 58 22 107 25 110 4 3 13 41
20 85 7 44 16 82 20 85 10 7 40 188 40 239 0 71 -11 81 -85 81 l-65 0 0 100 0
100 265 0 265 0 0 -100 0 -100 -52 0 c-71 0 -91 -22 -108 -118 -7 -39 -16 -72
-20 -72 -4 0 -16 -49 -26 -110 -10 -60 -21 -110 -25 -110 -3 0 -12 -34 -19
-75 -7 -41 -16 -75 -20 -75 -4 0 -15 -46 -25 -102 -10 -57 -22 -105 -25 -108
-4 -3 -15 -48 -25 -100 -10 -52 -21 -97 -25 -100 -8 -6 -40 -164 -40 -197 0
-13 -4 -23 -9 -23 -4 0 -14 -34 -21 -75 -7 -41 -16 -75 -20 -75 -4 0 -15 -45
-25 -100 -10 -55 -21 -100 -25 -100 -4 0 -15 -45 -25 -100 -10 -55 -21 -100
-25 -100 -3 0 -12 -36 -19 -80 -8 -44 -17 -80 -21 -80 -4 0 -15 -47 -25 -105
-10 -58 -21 -105 -25 -105 -4 0 -15 -47 -25 -105 -10 -58 -21 -105 -25 -105
-4 0 -13 -34 -20 -75 -7 -41 -17 -75 -21 -75 -5 0 -9 -11 -9 -25 l0 -25 -245
0 -245 0 0 100 0 100 146 0 c144 0 147 0 170 26 13 14 24 36 24 50 0 13 4 24
8 24 4 0 16 47 26 105 11 58 22 105 26 105 11 0 30 121 30 188 0 70 -17 162
-31 162 -5 0 -9 8 -9 18 0 25 -32 156 -40 162 -4 3 -13 35 -20 73 -7 37 -15
67 -19 67 -4 0 -15 41 -25 90 -11 50 -22 90 -25 90 -4 0 -15 43 -26 95 -10 52
-22 95 -26 95 -4 0 -13 32 -20 70 -7 39 -15 70 -19 70 -4 0 -15 41 -26 90 -10
50 -21 90 -25 90 -3 0 -14 41 -24 90 -10 50 -21 90 -25 90 -4 0 -13 32 -20 70
-7 39 -16 70 -20 70 -3 0 -14 41 -24 90 -11 50 -22 90 -25 90 -4 0 -13 27 -20
61 -18 81 -28 89 -112 89 l-69 0 0 100 0 100 295 0 295 0 0 -100z"/>
</g>
</svg>
