<?xml version="1.0" standalone="no"?>
<!DOCTYPE svg PUBLIC "-//W3C//DTD SVG 20010904//EN"
 "http://www.w3.org/TR/2001/REC-SVG-20010904/DTD/svg10.dtd">
<svg version="1.0" xmlns="http://www.w3.org/2000/svg"
 width="300.000000pt" height="260.000000pt" viewBox="0 0 300.000000 260.000000"
 preserveAspectRatio="xMidYMid meet" style="color:white;background-color:white;">
<g transform="translate(0.000000,260.000000) scale(0.100000,-0.100000)"
fill="#000000" stroke="none">
<path d="M1460 2440 c0 -6 -11 -16 -25 -22 -22 -10 -25 -16 -19 -42 3 -17 13
-35 20 -39 16 -9 19 -37 4 -37 -5 0 -10 5 -10 12 0 7 -3 8 -9 3 -5 -6 -5 -35
-1 -69 10 -69 7 -78 -23 -71 -57 13 -157 12 -168 -1 -6 -8 -22 -14 -35 -14
-12 0 -25 -4 -28 -9 -3 -4 -27 -6 -54 -3 -34 3 -52 0 -57 -9 -5 -7 -4 -14 3
-17 9 -3 9 -9 2 -23 -10 -18 -5 -19 180 -19 145 0 190 -3 191 -12 1 -31 1
-228 0 -274 -1 -51 -2 -52 -36 -58 -51 -10 -147 -106 -105 -106 7 0 36 37 44
56 1 1 12 5 26 9 21 7 15 -4 -34 -59 -51 -59 -59 -72 -60 -111 -1 -27 -8 -52
-21 -67 -45 -53 -113 -165 -120 -195 -3 -18 -7 -63 -7 -100 -1 -57 3 -76 27
-118 36 -65 43 -72 51 -52 3 9 -8 44 -25 79 -17 35 -32 72 -32 83 -4 43 1 105
9 105 4 0 6 -17 4 -38 -5 -53 54 -178 75 -160 8 6 12 17 9 25 -7 18 5 74 15
68 14 -9 20 13 7 27 -34 35 20 207 76 244 36 23 46 9 14 -21 -31 -29 -72 -94
-65 -102 4 -3 0 -18 -8 -34 -17 -32 -19 -59 -5 -59 6 0 10 9 10 20 0 11 11 38
25 60 14 22 22 40 19 40 -9 0 84 90 93 91 51 5 92 2 110 -9 12 -8 26 -11 32
-8 5 3 22 0 38 -8 15 -8 40 -20 55 -26 16 -8 33 -28 42 -51 8 -20 19 -40 24
-42 4 -3 7 -36 6 -73 -1 -38 3 -75 9 -84 7 -12 5 -24 -8 -43 -9 -15 -20 -27
-24 -27 -12 0 -93 -78 -90 -86 1 -5 -5 -11 -15 -12 -16 -3 -16 -1 -5 20 11 21
11 22 -4 10 -22 -19 -138 -7 -191 19 -23 11 -62 44 -88 72 -40 43 -48 48 -48
30 0 -12 -4 -25 -10 -28 -14 -9 -12 -44 3 -60 8 -7 44 -29 80 -47 37 -19 64
-38 60 -41 -3 -4 26 -7 65 -7 57 0 72 -3 72 -15 0 -24 -126 -19 -165 6 -16 10
-49 28 -72 38 -22 11 -45 27 -51 36 -8 15 -11 13 -21 -15 -9 -27 -8 -38 4 -57
16 -25 101 -70 112 -59 3 3 12 1 19 -5 8 -6 43 -14 79 -17 36 -2 65 -9 65 -13
0 -16 96 -9 159 11 69 23 98 44 112 78 5 13 17 26 27 29 23 6 48 52 67 128 18
70 26 195 12 195 -5 0 -7 9 -4 20 3 11 -4 34 -16 53 -12 18 -31 50 -41 70 -25
48 -62 86 -93 93 -17 5 -22 11 -18 23 7 16 9 50 6 107 0 18 -7 34 -15 37 -11
5 -14 -2 -10 -31 l4 -37 -12 33 c-7 18 -28 41 -46 52 -17 11 -32 22 -32 25 0
7 34 -7 52 -22 9 -8 22 -12 28 -8 12 7 -49 55 -69 55 -14 0 -20 13 -41 88 -14
51 -19 96 -17 175 2 109 5 115 42 107 31 -6 127 -5 132 2 2 5 11 3 20 -3 12
-10 16 -10 24 2 5 8 9 9 9 3 0 -15 38 -25 46 -13 3 5 23 9 45 9 21 0 39 5 39
10 0 6 -4 10 -10 10 -15 0 -12 16 5 34 8 8 15 17 15 20 0 8 -115 7 -124 -1
-10 -11 -50 -11 -57 -1 -3 5 -48 11 -99 13 -51 2 -95 6 -98 9 -2 3 -13 1 -23
-5 -13 -7 -19 -6 -19 2 0 6 9 13 20 16 18 5 21 13 20 52 -1 25 1 69 4 96 5 44
2 52 -17 66 -31 22 -67 33 -67 19z m69 -105 c-1 -41 -5 -75 -10 -75 -5 0 -9
34 -9 75 0 44 4 75 10 75 6 0 10 -30 9 -75z m-46 -118 c-7 -12 18 -57 28 -51
4 2 11 -12 15 -33 5 -25 3 -38 -5 -41 -6 -2 -11 -14 -11 -27 0 -21 -2 -22 -25
-12 -14 7 -23 16 -22 22 2 5 -8 19 -21 29 -23 19 -24 20 -6 27 10 4 13 8 7 8
-7 1 -13 6 -13 12 0 6 6 9 14 6 14 -6 25 28 27 82 0 23 1 24 8 6 5 -11 6 -24
4 -28z m-156 -61 c3 -3 -12 -6 -35 -6 -23 0 -42 5 -42 10 0 11 66 8 77 -4z
m313 6 c0 -5 -22 -9 -50 -11 -27 -1 -50 2 -50 7 0 5 23 10 50 11 28 1 50 -2
50 -7z m-148 -239 c5 -69 3 -82 -9 -69 -12 11 -16 136 -5 136 5 0 12 -30 14
-67z m28 -109 c0 -20 -29 -30 -43 -15 -9 10 -8 16 7 26 21 16 36 11 36 -11z
m50 -53 c0 -12 -7 -18 -17 -17 -21 1 -34 16 -26 29 3 5 9 3 14 -4 7 -11 9 -10
9 4 0 10 5 15 10 12 6 -3 10 -14 10 -24z m-49 -19 c31 -36 31 -42 2 -41 -15 0
-22 3 -15 6 19 7 14 23 -7 23 -26 0 -51 10 -51 21 0 16 55 9 71 -9z m-47 -31
c16 -6 12 -11 -27 -34 -53 -31 -57 -32 -57 -13 0 8 12 24 28 35 30 23 29 23
56 12z m73 -62 c34 -13 82 -67 83 -93 0 -13 -4 -16 -12 -9 -7 5 -32 15 -55 21
-44 13 -114 4 -160 -20 -26 -13 -43 -4 -25 14 7 7 12 19 12 28 1 8 25 27 58
42 66 32 63 31 99 17z m-28 -101 c4 7 15 10 24 6 30 -11 18 -21 -35 -28 -63
-9 -128 -28 -128 -38 0 -5 9 -8 20 -8 11 0 20 -4 20 -10 0 -10 -18 -14 -57
-10 -25 2 -83 -29 -83 -44 0 -5 -2 -7 -6 -4 -3 3 4 21 15 39 12 19 21 46 21
61 0 27 21 50 28 30 2 -6 10 -8 18 -5 17 6 18 -8 2 -27 -11 -12 -10 -12 2 -4
8 6 34 16 58 24 23 7 42 17 42 21 0 5 12 3 26 -3 20 -9 27 -9 33 0z m141 -72
c12 -24 31 -48 44 -54 29 -13 108 -145 100 -166 -3 -9 -1 -30 5 -47 14 -41 -7
-35 -33 10 -15 26 -16 35 -6 41 10 6 6 15 -14 36 -14 16 -26 33 -26 39 0 17
-62 82 -105 111 -35 24 -49 27 -110 26 -55 -1 -66 1 -51 9 14 9 118 32 168 38
5 1 17 -19 28 -43z m35 3 c9 -17 14 -36 12 -42 -4 -12 -37 44 -37 63 0 18 9
11 25 -21z m54 -16 c20 -19 61 -95 61 -113 0 -5 -4 -10 -10 -10 -5 0 -10 6
-10 13 0 20 -40 89 -63 108 -13 11 -17 18 -9 19 7 0 21 -8 31 -17z m-170 -24
c34 -12 44 -34 11 -25 -11 3 -29 9 -40 12 -11 3 -20 10 -20 15 0 12 10 11 49
-2z m-349 -110 c-12 -28 -20 -66 -20 -104 -1 -55 -2 -58 -15 -41 -21 28 -19
80 6 129 40 78 64 91 29 16z m614 -85 c8 -29 3 -39 -13 -29 -13 8 -15 55 -2
55 5 0 12 -12 15 -26z m-76 -95 c9 -40 4 -89 -8 -89 -4 0 -8 15 -7 33 0 17 -3
50 -7 72 -6 30 -5 37 4 29 6 -6 15 -27 18 -45z m87 -38 c2 -17 0 -33 -6 -36
-5 -4 -9 12 -9 36 0 47 9 48 15 0z m-46 -69 c-16 -26 -59 -38 -70 -20 -15 23
-10 30 8 12 11 -11 18 -13 21 -5 2 6 10 11 18 11 8 0 13 3 13 8 -4 23 2 35 12
25 8 -8 7 -16 -2 -31z m-11 -43 c-2 -6 -7 -10 -12 -9 -5 1 -13 -5 -18 -14 -5
-9 -17 -16 -26 -16 -25 0 -46 16 -37 29 5 9 10 9 21 0 11 -9 19 -8 36 4 27 19
41 21 36 6z m-81 -56 c6 -18 -48 -42 -110 -49 -65 -8 -91 12 -29 22 21 3 49
15 63 25 26 20 70 22 76 2z m8 -58 c-16 -14 -36 -25 -44 -25 -17 0 -11 7 26
31 41 26 53 22 18 -6z"/>
</g>
</svg>
